<svg id="Layer_1" data-name="Layer 1" xmlns="http://www.w3.org/2000/svg" viewBox="0 0 520.5 506.15"><defs><style>.cls-1{fill:#497463;}.cls-2{fill:#ad4c20;}.cls-3{fill:#fff;stroke:#497463;stroke-miterlimit:10;}</style></defs><polygon class="cls-1" points="520.5 494.98 469.72 479.75 469.72 418.81 520.5 434.05 503.81 460.16 520.5 494.98"/><polygon class="cls-1" points="0 494.98 50.78 479.75 50.78 418.81 0 434.05 16.68 460.16 0 494.98"/><path class="cls-1" d="M576.67,254.33a46.74,46.74,0,0,0,19.43,14.88c-.53-5.32-1-10-1.49-14.81h5a47,47,0,0,1,1,5.6c.18,2.51,1.54,4.16,3.76,6.29l4-11.84,5.68.11a60.67,60.67,0,0,1-8.36,19c-1,1.56-.93,3,.63,4.41a50.54,50.54,0,0,1,11.55,16.4c.26.59.51,1.18.79,1.75.06.12.25.19.55.41a54,54,0,0,1,19.2-20.83,52,52,0,0,1,5.76,26.76c-1.11,17.56-8.91,31.49-23.29,41.7-3.09,2.19-3.46,3.57-2.07,7.12a53.54,53.54,0,0,1,3.5,22.52,55,55,0,0,1,26.45-11.3,47,47,0,0,1-2.27,18.19c-6.82,20-20.7,32.25-41.38,36.68-1.84.4-2.61.91-2.69,3a48.63,48.63,0,0,1-4,17.45c-.31.71-.55,1.44-1,2.56a55.19,55.19,0,0,1,28.55-.15c-7,20.48-30.42,40-61.31,34.06-2.76,5.61-5.49,11.16-8.3,16.89a54.39,54.39,0,0,1,27.6,5.22,51.49,51.49,0,0,1-19.06,18.79c-15.45,8.65-31.46,9.58-47.85,2.87-1.84-.75-2.58-.5-3.77,1.18-3.29,4.69-7,9.12-10.51,13.7a54.33,54.33,0,0,1,25.55,11.37c-8.32,8.34-18.07,13.68-29.6,15.51a52.83,52.83,0,0,1-40.89-9.9c-2.06-1.51-4.05-1.83-6.36-.39-3.06,1.9-6.24,3.62-9.43,5.28a3.54,3.54,0,0,1-2.61.21c-2.61-1-5.12-2.25-8.13-3.62l19.71-8.39c-3.38-15.75-.72-30.25,8.45-43.36A52.76,52.76,0,0,1,486,479.86a53.1,53.1,0,0,1-1.84,31.34l21.51-4.28c-7.5-26.05-.2-47.4,22.19-63.78,4,7.25,7,17.54,5.62,31.2l18.1-8.64c-8-13.79-10-28.74-5-44.42a52.76,52.76,0,0,1,14.63-22.78,53.72,53.72,0,0,1,11,29.35l18.3-12.76c-22.21-15.72-27.71-44.39-17.5-66.22a54.28,54.28,0,0,1,21.82,23.73,55.48,55.48,0,0,1,17.27-23.85c-30-5.65-46-23.5-48.83-54A53.8,53.8,0,0,1,593,307c.36-4.56.38-9,1.15-13.33s2.3-8.63,3.47-12.84q-43.32,7.51-63.39-32.4a44.11,44.11,0,0,1,16.31-2.22c5.3.37,10.57,1.23,15.95,1.89A56.29,56.29,0,0,1,561.25,223c-16.36,7-32.34,6.95-48-1.11a52.38,52.38,0,0,1-21.49-20.64,54.49,54.49,0,0,1,32-4.15,54.82,54.82,0,0,1-9.55-32.93,54.56,54.56,0,0,1,26.32,11.06,56.12,56.12,0,0,1,6.06-28c19.68,12,32.36,40.28,19.19,68.71a54.82,54.82,0,0,1,20.87,13.78,55.28,55.28,0,0,1,10-26.76c12.37,9.73,21.68,30.1,17.35,51.59-1.73,0-3.77-.11-5.68-.11,3-16,0-30.63-10.52-43.26A46.28,46.28,0,0,0,592,233.68a13.57,13.57,0,0,0,1.28,4.69c2,5.18,4.25,10.87,6.35,16-1.88,0-3.1,0-5,0a13.29,13.29,0,0,0-.33-1.8C590,239.07,581,229,568.22,222.77a12.53,12.53,0,0,0-1.51-.48c-.53,11.69,2.72,22,9.54,31.66h0s.41.42.42.38m17.29-.48M510.13,513.37c-21.78-2.57-41.18,11-47.72,26.13C479.27,542.53,502.16,532,510.13,513.37Zm102.3-176.79c9.09-17.52,4.29-41.9-9.23-53.76C594.62,299.82,598.32,323,612.43,336.58Zm-15.52,82.86C576.67,425,563.12,446.59,564,462.63,582.58,457.39,596.93,438.05,596.91,419.44ZM520,171c-.53,17,20.45,41.86,35,41.45C553.84,192.34,537.08,174.45,520,171Zm80,236c14.11-8.49,22.43-40.33,13.87-52.54C599.43,364.91,592.76,390,600,407Zm-40.67,63.5c-20.75,1.6-38.22,20.16-40.44,36.31C537.5,505.24,555.63,489.38,559.28,470.52ZM455.6,536.16c2.07-2,4-3.42,5.33-5.26a57.63,57.63,0,0,1,13.3-13.42,6.4,6.4,0,0,0,2-2,47.8,47.8,0,0,0,5.94-25.38,21.4,21.4,0,0,0-.4-2.49C465.18,494,451.23,519.35,455.6,536.16Zm55.93-31.56c1.24-1.85,2.58-3.64,3.71-5.56,2.84-4.8,5.16-10,8.49-14.39A21.42,21.42,0,0,0,528,474.22c.12-.87.24-1.74.31-2.62a46,46,0,0,0-2.45-19.82C510.8,462.86,503.82,486,511.53,504.6Zm40.58-284.13.39-.79c-1.82-1.29-3.58-2.68-5.47-3.86-4.46-2.78-9.43-4.94-13.36-8.33a22,22,0,0,0-12-5.29,53.53,53.53,0,0,0-7.88-.62,41.12,41.12,0,0,0-13.66,2.26C511.68,219.79,534.34,226.68,552.11,220.47Zm3.95,241.8c1.07-2.33,2.37-4.19,2.8-6.24a61.06,61.06,0,0,1,6.94-18.58,7.77,7.77,0,0,0,1-3.37,47.39,47.39,0,0,0-5.13-24.85c-.33-.66-.77-1.28-1.19-2C547.34,422,545.68,445.83,556.06,462.27Zm35.87-187c-1.62-1.54-3.06-3.37-4.91-4.55A64.29,64.29,0,0,1,573.44,259a15.25,15.25,0,0,0-5.05-3.75A45.09,45.09,0,0,0,542.55,252C551.51,270.07,574.43,279.79,591.93,275.29Zm14.14,66.48.75-.48c-1-2.09-1.88-4.22-3-6.27-2.47-4.73-5.62-9.21-7.35-14.19a21.51,21.51,0,0,0-7.14-9.86,52.43,52.43,0,0,0-6.07-4.3,39.44,39.44,0,0,0-13.69-5.43C571.1,319.07,586.05,337.8,606.07,341.77Zm-13.46,67.85c.23-2.26.89-4.22.53-6-1.21-5.93-2.16-11.89-1.11-17.86.72-4.11-.54-7.53-2.14-11-.53-1.16-1.13-2.3-1.76-3.41a45.58,45.58,0,0,0-12.37-14.16C569.69,373.36,575.19,397.12,592.61,409.62Zm-17,89.22a45.73,45.73,0,0,0-23.13-1.64,9.41,9.41,0,0,0-4.15,2,58.32,58.32,0,0,1-20.41,11.34c-1.86.59-3.38,2.28-5.4,3.71C538.91,520.82,562.77,515.82,575.61,498.84Zm45.28-161.59c18-14.09,21.36-38.94,15-52.93-5.59,4-12.33,13.43-14.23,20.05a4.9,4.9,0,0,0,0,2.09,57.91,57.91,0,0,1-1.12,24.5C620,332.76,620.7,334.86,620.89,337.25ZM608,411.05c18.86-4.08,34.46-23.44,35-41.68a4.72,4.72,0,0,0-1.14.08,46.8,46.8,0,0,0-20,12,5.78,5.78,0,0,0-1.22,2.51,52.34,52.34,0,0,1-10.67,20.75A9.1,9.1,0,0,0,608,411.05ZM548.94,155.67c-2.63,5.7-3.83,16.08-2.52,23a9.92,9.92,0,0,0,1.93,4.19,53.09,53.09,0,0,1,10.44,20.33,8.87,8.87,0,0,0,4.06,5.31C570,191.29,564.38,167.86,548.94,155.67ZM464.89,548.09c15.92,10.85,40.9,9,54.53-3.38a44,44,0,0,0-18.64-6.47c-2.37-.24-5.19-.56-7.17.43a58.66,58.66,0,0,1-22.88,6.57A9,9,0,0,0,464.89,548.09Zm153-103.64c-.12-.11-.22-.27-.35-.3a7.65,7.65,0,0,0-1.18-.2,47.26,47.26,0,0,0-21.45,3,8.48,8.48,0,0,0-3.32,2.52,52.62,52.62,0,0,1-17.74,14.85,8.51,8.51,0,0,0-4.15,4.94C584.17,474.62,613.57,459.41,617.92,444.45Z" transform="translate(-158.65 -147.24)"/><path class="cls-1" d="M268.45,254.33s.41-.41.42-.38h0c6.82-9.69,10.07-20,9.54-31.66a12.53,12.53,0,0,0-1.51.48c-12.75,6.25-21.79,16.3-26.06,29.83a13.29,13.29,0,0,0-.33,1.8c-1.88,0-3.1,0-5,0,2.1-5.16,4.31-10.85,6.35-16a13.57,13.57,0,0,0,1.28-4.69,46.28,46.28,0,0,0-5.84-22.49c-10.48,12.63-13.56,27.26-10.52,43.26-1.91,0-4,.11-5.68.11-4.33-21.49,5-41.86,17.35-51.59a55.28,55.28,0,0,1,10,26.76A54.74,54.74,0,0,1,279.31,216c-13.18-28.43-.49-56.72,19.19-68.71a56.12,56.12,0,0,1,6.06,28,54.56,54.56,0,0,1,26.32-11.06,54.82,54.82,0,0,1-9.55,32.93,54.49,54.49,0,0,1,32,4.15,52.44,52.44,0,0,1-21.49,20.64c-15.65,8.06-31.63,8.09-48,1.11a56.29,56.29,0,0,1-5.27,25.13c5.38-.66,10.64-1.52,15.95-1.89a44.11,44.11,0,0,1,16.31,2.22q-20.16,40-63.39,32.4c1.17,4.21,2.69,8.46,3.47,12.84s.79,8.77,1.15,13.33a53.8,53.8,0,0,1,29.78-12.26c-2.8,30.51-18.83,48.36-48.83,54a55.48,55.48,0,0,1,17.27,23.85,54.23,54.23,0,0,1,21.82-23.73c10.21,21.83,4.71,50.5-17.5,66.22l18.3,12.76a53.72,53.72,0,0,1,11-29.35,52.76,52.76,0,0,1,14.63,22.78c5,15.68,3,30.63-5,44.42l18.09,8.64c-1.39-13.66,1.65-23.95,5.63-31.2,22.39,16.38,29.69,37.73,22.19,63.78L361,511.2a53.1,53.1,0,0,1-1.84-31.34,52.76,52.76,0,0,1,26.56,19.83c9.17,13.11,11.83,27.61,8.45,43.36l19.71,8.39c-3,1.37-5.52,2.61-8.13,3.62a3.54,3.54,0,0,1-2.61-.21c-3.19-1.66-6.37-3.38-9.43-5.28-2.31-1.44-4.3-1.12-6.36.39a52.84,52.84,0,0,1-40.9,9.9c-11.52-1.83-21.27-7.17-29.59-15.51A54.33,54.33,0,0,1,342.42,533c-3.56-4.58-7.22-9-10.51-13.7-1.19-1.68-1.93-1.93-3.78-1.18-16.38,6.71-32.39,5.78-47.84-2.87a51.49,51.49,0,0,1-19.06-18.79,54.37,54.37,0,0,1,27.6-5.22c-2.81-5.73-5.54-11.28-8.3-16.89-30.89,5.91-54.28-13.58-61.31-34.06a55.19,55.19,0,0,1,28.55.15c-.43-1.12-.68-1.85-1-2.56a48.43,48.43,0,0,1-4-17.45c-.08-2.1-.85-2.61-2.69-3-20.68-4.43-34.56-16.63-41.38-36.68a46.85,46.85,0,0,1-2.27-18.19,55.09,55.09,0,0,1,26.45,11.3,53.54,53.54,0,0,1,3.5-22.52c1.39-3.55,1-4.93-2.07-7.12C209.91,334,202.11,320.05,201,302.49a51.86,51.86,0,0,1,5.76-26.76A54,54,0,0,1,226,296.56c.3-.22.49-.29.55-.41.28-.57.53-1.16.79-1.75A50.54,50.54,0,0,1,238.85,278c1.56-1.46,1.68-2.85.62-4.41a60.42,60.42,0,0,1-8.35-19l5.68-.11,4,11.84c2.22-2.13,3.58-3.78,3.75-6.29a49.13,49.13,0,0,1,1-5.6h5c-.49,4.84-1,9.49-1.49,14.81a46.74,46.74,0,0,0,19.43-14.88m-17.29-.48M382.71,539.5c-6.54-15.16-25.94-28.7-47.72-26.13C343,532,365.85,542.53,382.71,539.5ZM241.92,282.82c-13.52,11.86-18.32,36.24-9.23,53.76C246.8,323,250.5,299.82,241.92,282.82Zm39.21,179.81c.86-16-12.68-37.67-32.92-43.19C248.19,438.05,262.54,457.39,281.13,462.63Zm9-250.19c14.54.41,35.52-24.45,35-41.45C308,174.45,291.28,192.34,290.15,212.44Zm-58.85,142c-8.57,12.21-.24,44,13.87,52.54C252.36,390,245.69,364.91,231.3,354.48Zm95,152.35c-2.22-16.15-19.69-34.71-40.44-36.31C289.49,489.38,307.62,505.24,326.28,506.83Zm37.1-19.23a21.4,21.4,0,0,0-.4,2.49,47.8,47.8,0,0,0,5.94,25.38,6.4,6.4,0,0,0,2,2,57.4,57.4,0,0,1,13.29,13.42c1.34,1.84,3.27,3.26,5.33,5.26C393.89,519.35,379.94,494,363.38,487.6ZM319.3,451.78a46.18,46.18,0,0,0-2.46,19.82c.08.88.2,1.75.32,2.62a21.42,21.42,0,0,0,4.23,10.43c3.33,4.41,5.65,9.59,8.48,14.39,1.14,1.92,2.48,3.71,3.72,5.56C341.3,486,334.32,462.86,319.3,451.78ZM345,203.84a41.12,41.12,0,0,0-13.66-2.26,53.53,53.53,0,0,0-7.88.62,22,22,0,0,0-12,5.29c-3.93,3.39-8.9,5.55-13.36,8.33-1.89,1.18-3.65,2.57-5.47,3.86l.39.79C310.78,226.68,333.44,219.79,345,203.84ZM284.64,407.25c-.42.7-.86,1.32-1.2,2a47.48,47.48,0,0,0-5.12,24.85,7.77,7.77,0,0,0,1,3.37A61.06,61.06,0,0,1,286.26,456c.43,2.05,1.73,3.91,2.8,6.24C299.44,445.83,297.77,422,284.64,407.25ZM302.57,252a45.09,45.09,0,0,0-25.84,3.23,15.15,15.15,0,0,0-5.05,3.75,64.54,64.54,0,0,1-13.58,11.75c-1.85,1.18-3.29,3-4.91,4.55C270.69,279.79,293.61,270.07,302.57,252Zm-27.08,49.23a39.47,39.47,0,0,0-13.68,5.43,52.43,52.43,0,0,0-6.07,4.3,21.51,21.51,0,0,0-7.14,9.86c-1.73,5-4.88,9.46-7.35,14.19-1.07,2.05-2,4.18-2.95,6.27l.75.48C259.06,337.8,274,319.07,275.49,301.24Zm-6.13,56A45.58,45.58,0,0,0,257,371.36c-.64,1.11-1.23,2.25-1.76,3.41-1.6,3.49-2.86,6.91-2.14,11,1,6,.1,11.93-1.11,17.86-.36,1.75.29,3.71.53,6C269.93,397.12,275.43,373.36,269.36,357.2ZM322.6,514.26c-2-1.43-3.54-3.12-5.41-3.71a58.36,58.36,0,0,1-20.4-11.34,9.45,9.45,0,0,0-4.16-2,45.7,45.7,0,0,0-23.12,1.64C282.35,515.82,306.21,520.82,322.6,514.26Zm-98-183.3a57.91,57.91,0,0,1-1.12-24.5,4.9,4.9,0,0,0,0-2.09c-1.9-6.62-8.64-16.09-14.23-20.05-6.39,14-3.06,38.84,15,52.93C224.42,334.86,225.11,332.76,224.64,331Zm10.41,73.71a52.34,52.34,0,0,1-10.67-20.75,5.78,5.78,0,0,0-1.22-2.51,46.8,46.8,0,0,0-20-12,4.84,4.84,0,0,0-1.15-.08c.59,18.24,16.19,37.6,35.05,41.68C237.05,408.69,236.74,406.63,235.05,404.67Zm47.22-196.2a8.87,8.87,0,0,0,4.06-5.31,53,53,0,0,1,10.44-20.33,9.92,9.92,0,0,0,1.93-4.19c1.31-6.89.1-17.27-2.52-23C280.74,167.86,275.12,191.29,282.27,208.47Zm92.12,336.77a58.61,58.61,0,0,1-22.88-6.57c-2-1-4.8-.67-7.18-.43a44,44,0,0,0-18.63,6.47c13.63,12.37,38.61,14.23,54.52,3.38C378.54,546.56,376.89,545.38,374.39,545.24Zm-99-75.95a8.56,8.56,0,0,0-4.16-4.94A52.68,52.68,0,0,1,253.5,449.5a8.48,8.48,0,0,0-3.32-2.52,47.26,47.26,0,0,0-21.45-3,7.65,7.65,0,0,0-1.18.2c-.13,0-.24.19-.35.3C231.55,459.41,261,474.62,275.39,469.29Z" transform="translate(-158.65 -147.24)"/><path class="cls-2" d="M541.28,324.12c-3-16.75-9.62-31.67-20.28-44.4-32.13-38.36-73.12-54.32-121.89-41.87C349.7,250.47,321,284.64,312,334.39c-5.9,32.41,2.54,61.59,25.68,85.63a57.6,57.6,0,0,0,16.44,11.65c11.41,5.46,20.44,1.29,24.79-10.65,4.55-12.49,8.36-25.27,13.33-37.58,3.38-8.38,8.19-16.18,12.37-24.24C393,400.41,382.22,440.91,414.9,479.12c-15.51-.47-29.19-4.74-42.32-10.76-50.3-23.07-77-72.37-74.45-124.25,2.62-53.91,43.5-103.38,94.81-115.76,68.07-16.43,137,24.07,150.57,92.48" transform="translate(-158.65 -147.24)"/><path class="cls-1" d="M543.51,320.83c.82,4.16,1.25,8.4,1.87,12.73L520,321.92l-.91,7.42-16.9-11.15v10.67l-21.08-15.08c-1,3.28-1.71,5.76-2.26,7.61l-26.44-8.19c-.43.82-.85,1.64-1.27,2.46,24.82,13.68,45,31.07,47.95,61.29,1.6,16.39-4.13,36.83-12.66,47.21-1.22-8.56-2.37-16.58-3.63-25.45l-6.4,3.82c.63-9.5,1.22-18.27,1.92-28.73l-12.37,10.78c.71-12.26,1.33-22.89,2-34.88l-9.08,5.67L445.6,322.19c-1.9,1.43-2.9,1.81-3.27,2.51-13,25.12-23.84,50.86-23.23,79.95.75,35.91,33,57.59,65.94,43.27,27-11.73,43.79-33.69,53.81-60.88,3.25-8.8,5.29-18,8.3-28.56-2.67,45.95-19.43,82.36-60.36,103.66C466.18,472.86,444.55,473,425.17,458c-13.21-10.26-18.9-24.91-20.09-41.2-2-27.29,7.73-51.83,18.68-76,2.74-6,5.79-12,8.7-17.93-.51-.46-1-.92-1.54-1.37l-23.2,18.26c-.55-3.95-1.06-7.52-1.82-12.94l-24.19,28.28c-1.38-4.64-2.47-8.34-4-13.61-6.33,8.28-12,15.65-18.13,23.72-1.69-3.51-3.07-6.36-4.76-9.88L335.89,375.7c-.74-15.55,14.93-38.23,34-50,18.11-11.18,38.61-14.51,59.91-16.87-6.74-5.65-16.14.44-21.94-7.55l-23.49,6.45c1.65-4.14,2.76-6.91,4.4-11L366.33,303c.23-1.74.39-3,.7-5.29l-27.17,3c8.54-9.5,17.65-16.48,29-17.82,10.83-1.29,22.35-1.42,32.9.92,10.8,2.38,20.8,8.38,31.72,13-.58-13.37-6.17-25-12.47-37.77,12,5.74,17.43,15,21.34,26.4L464.05,249l1.68.78q-6.14,19.24-12.28,38.52l40.28-7.1.5,2.23C480.37,289,465,291.8,455.43,303.7c15.5-1.14,31.16-3.58,46.74-3.11,16.57.51,29.45,9.76,39.11,23.53" transform="translate(-158.65 -147.24)"/><path class="cls-3" d="M628.29,627.35q-210.64,50.91-420,0V566.41c144.6,25.27,284.43,24.25,420,0Z" transform="translate(-158.65 -147.24)"/><path class="cls-2" d="M236.33,608.11l-.45,3-5.59-.84a12.4,12.4,0,0,1-3-.83,7,7,0,0,1-2.22-1.51,5.39,5.39,0,0,1-1.27-2.15,6.23,6.23,0,0,1-.14-2.78,5.81,5.81,0,0,1,.9-2.36,5.37,5.37,0,0,1,1.78-1.7,7.14,7.14,0,0,1,2.56-.92,10.43,10.43,0,0,1,3.25,0l.44.07.16-1.09,3.07.47c-.61,4.11-.92,6.16-1.53,10.27Zm-5.6-13.41a1.89,1.89,0,0,1-1.27.22,2,2,0,0,1-1.14-.59,1.43,1.43,0,0,1-.32-1.24,1.38,1.38,0,0,1,.67-1,1.77,1.77,0,0,1,1.27-.24,1.83,1.83,0,0,1,1.15.61,1.41,1.41,0,0,1,.32,1.2A1.39,1.39,0,0,1,230.73,594.7Zm.46,12.64c.37-2.46.56-3.69.93-6.15l-1.19-.18a4.49,4.49,0,0,0-1.37,0,4.17,4.17,0,0,0-1.28.41,3,3,0,0,0-1,.84,2.76,2.76,0,0,0-.53,1.26,2.87,2.87,0,0,0,.74,2.45,3.49,3.49,0,0,0,1,.76,4.46,4.46,0,0,0,1.3.4Zm4.3-11.92a1.89,1.89,0,0,1-1.27.22,1.85,1.85,0,0,1-1.14-.58,1.39,1.39,0,0,1-.33-1.24,1.41,1.41,0,0,1,.66-1,1.75,1.75,0,0,1,1.28-.24,1.77,1.77,0,0,1,1.16.6,1.43,1.43,0,0,1,.32,1.19A1.45,1.45,0,0,1,235.49,595.42Z" transform="translate(-158.65 -147.24)"/><path class="cls-2" d="M235.93,608.05l4.63.67c.53-3.68.8-5.52,1.33-9.19L245,600c-.69,4.9-1,7.35-1.73,12.25-3.1-.44-4.65-.66-7.75-1.12Zm2.62,7.82a2,2,0,0,1-1.28.21,2,2,0,0,1-1.17-.57,1.36,1.36,0,0,1-.34-1.22,1.43,1.43,0,0,1,.67-1.06,1.78,1.78,0,0,1,1.29-.25,1.86,1.86,0,0,1,1.18.61,1.43,1.43,0,0,1,.33,1.2A1.36,1.36,0,0,1,238.55,615.87Zm4.84.69a2.12,2.12,0,0,1-2.45-.35,1.35,1.35,0,0,1-.35-1.22,1.45,1.45,0,0,1,.66-1.06,1.86,1.86,0,0,1,1.3-.26,1.83,1.83,0,0,1,1.19.61,1.5,1.5,0,0,1,.33,1.2A1.39,1.39,0,0,1,243.39,616.56Z" transform="translate(-158.65 -147.24)"/><path class="cls-2" d="M246.73,617.58a7.27,7.27,0,0,1-.86-.17,6.21,6.21,0,0,1-.7-.24l.2-3.08c.29.11.54.2.76.26a5.12,5.12,0,0,0,.68.14,1.56,1.56,0,0,0,1.38-.32,2.9,2.9,0,0,0,.59-1.59c.65-4.74,1-7.11,1.62-11.86l3.08.42c-.49,3.68-.74,5.53-1.23,9.21l2.39.32-.4,3.05-2.43-.32a5.75,5.75,0,0,1-1.67,3.49A4.28,4.28,0,0,1,246.73,617.58Z" transform="translate(-158.65 -147.24)"/><path class="cls-2" d="M254.2,610.61l2.15.28a3.9,3.9,0,0,1,0-.69,4.56,4.56,0,0,1,.06-.72,6.67,6.67,0,0,1,2.55-4.46,6.62,6.62,0,0,1,4.91-1.36,6.88,6.88,0,0,1,4.52,2.51,6.32,6.32,0,0,1,1.18,2.29,6.73,6.73,0,0,1,.21,2.7,5.25,5.25,0,0,1-.13.71c-.06.23-.12.45-.19.67l2.48.29c-.14,1.22-.21,1.84-.36,3.06l-4.16-.5a6.45,6.45,0,0,1-2.41,1.25,6.86,6.86,0,0,1-2.79.21,6.55,6.55,0,0,1-2.61-.9,6.92,6.92,0,0,1-2-1.79l-3.81-.5C254,612.44,254,611.83,254.2,610.61Zm7,2.74a3.88,3.88,0,0,0,1.37.45,4,4,0,0,0,1.46-.09,3.67,3.67,0,0,0,1.25-.58,3.22,3.22,0,0,0,.92-1,3.46,3.46,0,0,0,.45-1.37,3.88,3.88,0,0,0-.09-1.45,3.4,3.4,0,0,0-.62-1.23,3.36,3.36,0,0,0-1.05-.89,3.88,3.88,0,0,0-1.43-.46,3.48,3.48,0,0,0-1.45.11,3.43,3.43,0,0,0-1.2.62,3.56,3.56,0,0,0-.88,1,3.69,3.69,0,0,0-.44,1.36,3.55,3.55,0,0,0,.08,1.42,3.41,3.41,0,0,0,.61,1.2A3.51,3.51,0,0,0,261.2,613.35Z" transform="translate(-158.65 -147.24)"/><path class="cls-2" d="M271.47,612.78c3.69.44,5.53.65,9.22,1.06a13.48,13.48,0,0,0,.45-1.54,13.22,13.22,0,0,0,.27-1.54,4.47,4.47,0,0,0-.09-1.44,2.87,2.87,0,0,0-.7-1.32,3.86,3.86,0,0,0-2.51-1.13,6,6,0,0,0-1.64,0,6.94,6.94,0,0,0-1.68.57l-1-2.81a12.21,12.21,0,0,1,2.39-.72,8.75,8.75,0,0,1,2.62-.07,6.83,6.83,0,0,1,2.43.71A5.63,5.63,0,0,1,283,606a7.05,7.05,0,0,1,1.21,2.31,7.5,7.5,0,0,1,.23,3,13.69,13.69,0,0,1-.23,1.45c-.11.48-.23.94-.37,1.4l2.4.26c-.13,1.22-.19,1.83-.32,3-5.94-.63-8.91-1-14.84-1.67Z" transform="translate(-158.65 -147.24)"/><path class="cls-2" d="M285.85,614.4l2.18.23c.61-5.86.92-8.8,1.54-14.66l4.5.46c-.12,1.23-.18,1.84-.31,3.06l-1.43-.14L290.83,618c-2.12-.21-3.19-.32-5.31-.55Z" transform="translate(-158.65 -147.24)"/><path class="cls-2" d="M297.81,600.81l3.08.3-1.7,17.73-3.12-.3C296.77,611.45,297.11,607.9,297.81,600.81Z" transform="translate(-158.65 -147.24)"/><path class="cls-2" d="M322.29,617.75l-.24,3.07c-2.25-.18-3.38-.26-5.63-.45a11.7,11.7,0,0,1-3-.63,6.82,6.82,0,0,1-2.31-1.34,5.35,5.35,0,0,1-1.41-2.06,6.18,6.18,0,0,1-.33-2.77,6,6,0,0,1,.72-2.41,5.45,5.45,0,0,1,1.66-1.82,7.08,7.08,0,0,1,2.49-1.09,10.19,10.19,0,0,1,3.23-.21l.44,0L318,607l3.09.25c-.32,4.15-.49,6.22-.81,10.36Zm-6.5-13a2,2,0,0,1-2.43-.21,1.59,1.59,0,0,1,.19-2.3,1.84,1.84,0,0,1,1.26-.32,1.8,1.8,0,0,1,1.18.53,1.4,1.4,0,0,1,.4,1.17A1.42,1.42,0,0,1,315.79,604.77Zm1.33,12.57.5-6.2-1.19-.09a4.5,4.5,0,0,0-1.37.09,4,4,0,0,0-1.25.5,3.14,3.14,0,0,0-.94.91,2.71,2.71,0,0,0-.43,1.29,2.84,2.84,0,0,0,.18,1.36,3,3,0,0,0,.72,1,3.3,3.3,0,0,0,1.1.69,4.54,4.54,0,0,0,1.32.31Zm3.46-12.18a1.9,1.9,0,0,1-1.25.3,1.84,1.84,0,0,1-1.18-.5,1.57,1.57,0,0,1,.18-2.3,1.78,1.78,0,0,1,1.25-.33,1.81,1.81,0,0,1,1.2.53,1.42,1.42,0,0,1,.39,1.16A1.46,1.46,0,0,1,320.58,605.16Z" transform="translate(-158.65 -147.24)"/><path class="cls-2" d="M321.89,617.72l4.65.35c.28-3.7.41-5.56.69-9.27l3.09.23c-.35,4.93-.52,7.4-.87,12.34l-7.8-.58Zm3.15,7.62a1.93,1.93,0,0,1-1.26.3,2,2,0,0,1-1.21-.48,1.38,1.38,0,0,1-.42-1.2,1.44,1.44,0,0,1,.59-1.11,2,2,0,0,1,2.48.19,1.45,1.45,0,0,1,.42,1.18A1.39,1.39,0,0,1,325,625.34Zm4.86.35a2.12,2.12,0,0,1-2.46-.17,1.36,1.36,0,0,1-.43-1.2,1.42,1.42,0,0,1,.58-1.1,1.81,1.81,0,0,1,1.28-.35,1.79,1.79,0,0,1,1.22.53,1.44,1.44,0,0,1,.41,1.17A1.35,1.35,0,0,1,329.9,625.69Z" transform="translate(-158.65 -147.24)"/><path class="cls-2" d="M332.14,618.47c3.11.22,4.67.32,7.78.52.08-1.35.13-2,.21-3.36a4.26,4.26,0,0,0-.07-1.16,2.67,2.67,0,0,0-.4-.89,2.21,2.21,0,0,0-.75-.66,2.75,2.75,0,0,0-1.08-.3l-1.34-.08.21-3.07,1,.06a8.12,8.12,0,0,1,2.61.56,4.88,4.88,0,0,1,1.9,1.38,4.21,4.21,0,0,1,.88,2,10.89,10.89,0,0,1,.14,2.53l-.2,3.22,2.41.14c-.07,1.23-.11,1.85-.18,3.07-5.34-.31-8-.48-13.34-.85C332,620.31,332.05,619.7,332.14,618.47Z" transform="translate(-158.65 -147.24)"/><path class="cls-2" d="M345,619.3l2.18.12c.34-5.88.51-8.83.84-14.71l3.09.17c-.32,5.89-.48,8.83-.81,14.72l2.86.15-.16,3.07c-3.27-.17-4.91-.26-8.18-.45Z" transform="translate(-158.65 -147.24)"/><path class="cls-2" d="M352.74,619.73l2.77.14c.19-3.71.28-5.57.47-9.28l3.1.15-.45,9.28,2.39.12c-.06,1.22-.08,1.84-.14,3.07-3.32-.15-5-.24-8.3-.41C352.65,621.57,352.68,621,352.74,619.73Zm5.26,7.61a2.22,2.22,0,0,1-2.58-.13,1.46,1.46,0,0,1-.49-1.25,1.47,1.47,0,0,1,.59-1.15,2.12,2.12,0,0,1,2.62.13,1.61,1.61,0,0,1-.14,2.4Z" transform="translate(-158.65 -147.24)"/><path class="cls-2" d="M360.6,620.12l2.18.1c.27-5.9.4-8.84.66-14.73l4.52.19c0,1.23-.08,1.84-.13,3.07l-1.43-.06c-.25,5.9-.37,8.84-.62,14.73l-5.33-.23Z" transform="translate(-158.65 -147.24)"/><path class="cls-2" d="M389.43,621.12c0,1.23,0,1.84-.07,3.07l-5.64-.14a12,12,0,0,1-3.06-.46,7,7,0,0,1-2.38-1.22,5.29,5.29,0,0,1-1.52-2,6.54,6.54,0,0,1,.11-5.2,5.58,5.58,0,0,1,1.55-1.9,7.31,7.31,0,0,1,2.43-1.23,10.43,10.43,0,0,1,3.22-.38l.44,0,0-1.1,3.1.08c-.11,4.15-.16,6.23-.26,10.39Zm-7.18-12.62a1.91,1.91,0,0,1-1.23.37,1.86,1.86,0,0,1-1.2-.44,1.4,1.4,0,0,1-.47-1.19,1.42,1.42,0,0,1,.53-1.12,1.86,1.86,0,0,1,1.24-.39,1.77,1.77,0,0,1,1.21.47,1.57,1.57,0,0,1-.08,2.3Zm2,12.49c.07-2.49.11-3.73.17-6.22l-1.2,0a4.23,4.23,0,0,0-1.36.17,3.74,3.74,0,0,0-1.21.57,3,3,0,0,0-.89.95,2.6,2.6,0,0,0-.36,1.32,2.73,2.73,0,0,0,.26,1.34,2.77,2.77,0,0,0,.77,1,3.21,3.21,0,0,0,1.13.63,4.28,4.28,0,0,0,1.33.24Zm2.8-12.36a1.94,1.94,0,0,1-1.23.38,1.92,1.92,0,0,1-1.2-.44,1.57,1.57,0,0,1,.05-2.31,1.75,1.75,0,0,1,1.23-.39,1.78,1.78,0,0,1,1.23.46,1.6,1.6,0,0,1-.08,2.3Z" transform="translate(-158.65 -147.24)"/><path class="cls-2" d="M389,621.11l4.67.1c.07-3.72.11-5.58.18-9.29l3.1.05c-.08,4.95-.12,7.42-.21,12.37-3.12-.05-4.68-.08-7.81-.16C389,623,389,622.34,389,621.11Zm3.56,7.44a2,2,0,0,1-1.25.37,1.93,1.93,0,0,1-1.22-.43,1.37,1.37,0,0,1-.49-1.17,1.44,1.44,0,0,1,.53-1.13,1.8,1.8,0,0,1,1.25-.41,1.84,1.84,0,0,1,1.24.46,1.44,1.44,0,0,1,.48,1.15A1.38,1.38,0,0,1,392.59,628.55Zm4.87.09a1.94,1.94,0,0,1-1.24.37,2,2,0,0,1-1.23-.42,1.37,1.37,0,0,1-.49-1.17,1.43,1.43,0,0,1,.52-1.13,2,2,0,0,1,2.5,0,1.44,1.44,0,0,1,.48,1.15A1.38,1.38,0,0,1,397.46,628.64Z" transform="translate(-158.65 -147.24)"/><path class="cls-2" d="M400.89,629.24a6.13,6.13,0,0,1-.87-.07,4.48,4.48,0,0,1-.72-.15c-.07-1.23-.11-1.85-.18-3.08.3.08.56.13.78.17a5.36,5.36,0,0,0,.7,0,1.51,1.51,0,0,0,1.32-.49,2.84,2.84,0,0,0,.39-1.64l.15-12,3.1,0c0,4.62-.07,6.92-.12,11.54a11.59,11.59,0,0,1-.27,2.55,4.5,4.5,0,0,1-.8,1.75,3.28,3.28,0,0,1-1.41,1A5.8,5.8,0,0,1,400.89,629.24Z" transform="translate(-158.65 -147.24)"/><path class="cls-2" d="M409.81,606.68l3.09,0c0,7.12,0,10.69-.08,17.81h-3.13C409.74,617.37,409.76,613.81,409.81,606.68Z" transform="translate(-158.65 -147.24)"/><path class="cls-2" d="M415.29,621.45h7.8c0-1.34,0-2,0-3.36a4,4,0,0,0-.15-1.15,2.28,2.28,0,0,0-.46-.87,2,2,0,0,0-.79-.6,2.64,2.64,0,0,0-1.1-.23h-1.33v-3.07h1a8.17,8.17,0,0,1,2.64.37,5,5,0,0,1,2,1.26,4.25,4.25,0,0,1,1,1.89,10.49,10.49,0,0,1,.3,2.52l0,6.3c-4.38,0-6.57,0-11,0C415.29,623.29,415.29,622.68,415.29,621.45Z" transform="translate(-158.65 -147.24)"/><path class="cls-2" d="M428.58,621.41l6.36-.07a5.21,5.21,0,0,0,1.41-.21,3.1,3.1,0,0,0,1.1-.57,2.48,2.48,0,0,0,.68-.94,3.42,3.42,0,0,0,.23-1.36c-.09-5.34-.13-8-.22-13.34l4.52-.08.06,3.08-1.44,0c.08,4.06.12,6.09.19,10.15a8.18,8.18,0,0,1-.36,2.62,4.59,4.59,0,0,1-1.23,2,5.63,5.63,0,0,1-2.34,1.26,12.77,12.77,0,0,1-3.2.4l-5.36.06Zm3-12.71,3.1,0,.15,11.58-3.12,0C431.69,615.65,431.66,613.33,431.61,608.7Z" transform="translate(-158.65 -147.24)"/><path class="cls-2" d="M446.57,606.38l3.09-.07c.18,7.12.27,10.69.46,17.81l-3.14.08C446.82,617.07,446.74,613.51,446.57,606.38Z" transform="translate(-158.65 -147.24)"/><path class="cls-2" d="M466.83,623.58a13.61,13.61,0,0,1-1.83,0,7.9,7.9,0,0,1-1.52-.26,6.1,6.1,0,0,1-1.28-.51,6.43,6.43,0,0,1-1.11-.79,4.09,4.09,0,0,1-1.23-2,9.58,9.58,0,0,1-.42-2.54c-.06-1.66-.08-2.49-.14-4.15l3.11-.11c0,1.51.08,2.26.13,3.78a6,6,0,0,0,.27,1.67,2.37,2.37,0,0,0,.77,1.1,3.21,3.21,0,0,0,1.47.61,9.54,9.54,0,0,0,1.88.1l6.25-.26c-.16-3.71-.24-5.57-.41-9.28l3.1-.14c.23,4.94.35,7.41.58,12.35C472.6,623.35,470.68,623.43,466.83,623.58Zm-.39-13.47a1.93,1.93,0,0,1-1.2.45,1.85,1.85,0,0,1-1.23-.36,1.42,1.42,0,0,1-.56-1.15,1.44,1.44,0,0,1,.46-1.15,2,2,0,0,1,2.45-.1,1.45,1.45,0,0,1,.54,1.11A1.41,1.41,0,0,1,466.44,610.11Zm4.8-.2a1.88,1.88,0,0,1-1.2.46,1.92,1.92,0,0,1-1.23-.35,1.44,1.44,0,0,1-.56-1.16,1.41,1.41,0,0,1,.45-1.15,2,2,0,0,1,2.47-.1,1.45,1.45,0,0,1,.53,1.11A1.4,1.4,0,0,1,471.24,609.91Z" transform="translate(-158.65 -147.24)"/><path class="cls-2" d="M479.83,605.17l3.09-.16c.37,7.12.56,10.68.93,17.8l-3.13.16C480.37,615.85,480.19,612.29,479.83,605.17Z" transform="translate(-158.65 -147.24)"/><path class="cls-2" d="M486.93,618.44a6.73,6.73,0,0,1,1.36-5.05,6.27,6.27,0,0,1,4.48-1.89l2-.12c.08,1.22.11,1.84.19,3.07l-2.64.16a2.25,2.25,0,0,0-1.75.87,3.13,3.13,0,0,0-.55,2.19l.1,1.71,6.11-.37c.07,1.23.11,1.84.19,3.07-3.7.23-5.55.34-9.26.55C487.07,621,487,620.11,486.93,618.44Z" transform="translate(-158.65 -147.24)"/><path class="cls-2" d="M499.4,604l3.09-.2c.48,7.11.73,10.66,1.21,17.77l-3.12.21C500.11,614.7,499.87,611.15,499.4,604Z" transform="translate(-158.65 -147.24)"/><path class="cls-2" d="M508.21,626.13a6.5,6.5,0,0,1-.88,0,4.4,4.4,0,0,1-.73-.09c-.18-1.22-.26-1.83-.44-3,.3,0,.57.08.79.1a5.48,5.48,0,0,0,.7,0,1.48,1.48,0,0,0,1.27-.6,2.81,2.81,0,0,0,.25-1.67c-.35-4.78-.52-7.16-.87-11.94l3.1-.23.7,9.27,2.4-.19c.1,1.23.15,1.84.24,3.07l-2.43.19a5.84,5.84,0,0,1-.91,3.77A4.24,4.24,0,0,1,508.21,626.13Z" transform="translate(-158.65 -147.24)"/><path class="cls-2" d="M514.06,617.77c3.7-.29,5.55-.44,9.24-.75a12.63,12.63,0,0,0,.15-1.6,13,13,0,0,0,0-1.56,4.39,4.39,0,0,0-.38-1.39,2.77,2.77,0,0,0-.94-1.17,3.81,3.81,0,0,0-2.68-.61,6,6,0,0,0-1.6.33,6.42,6.42,0,0,0-1.54.89l-1.49-2.57a11.31,11.31,0,0,1,2.2-1.17,8.64,8.64,0,0,1,2.56-.58,6.69,6.69,0,0,1,2.52.23,5.56,5.56,0,0,1,2,1.09,6.88,6.88,0,0,1,1.62,2,7.13,7.13,0,0,1,.81,2.89,11.3,11.3,0,0,1,0,1.74c0,.58-.06,1.13-.12,1.67s-.13,1-.22,1.47-.17.84-.25,1.17c-4.67.4-7,.59-11.68,1Zm8,6.72a2,2,0,0,1-1.25.52,2.08,2.08,0,0,1-1.33-.31,1.43,1.43,0,0,1-.64-1.18,1.47,1.47,0,0,1,.43-1.22,2.14,2.14,0,0,1,2.61-.21,1.6,1.6,0,0,1,.18,2.4Z" transform="translate(-158.65 -147.24)"/><path class="cls-2" d="M529,616.52c2.53-.22,3.8-.34,6.34-.58a4.9,4.9,0,0,0,1.38-.32,3,3,0,0,0,1.06-.66,2.34,2.34,0,0,0,.6-1,3.33,3.33,0,0,0,.12-1.38c-.52-5.31-.78-8-1.29-13.27l4.5-.45c.12,1.23.18,1.84.31,3.06l-1.43.15,1,10.1a8.32,8.32,0,0,1-.15,2.64,4.51,4.51,0,0,1-1.06,2.14,5.59,5.59,0,0,1-2.23,1.44,12.65,12.65,0,0,1-3.17.66l-5.33.49Zm2-12.91,3.08-.28c.44,4.61.66,6.91,1.09,11.52l-3.11.29C531.66,610.53,531.45,608.23,531,603.61Z" transform="translate(-158.65 -147.24)"/><path class="cls-2" d="M545.77,600.09l3.08-.32c.75,7.09,1.13,10.63,1.88,17.72l-3.12.33C546.88,610.73,546.51,607.18,545.77,600.09Z" transform="translate(-158.65 -147.24)"/><path class="cls-2" d="M572.13,617.46a6.62,6.62,0,0,1-2.18-.09,6.89,6.89,0,0,1-2-.73,6.49,6.49,0,0,1-1.62-1.28,6.09,6.09,0,0,1-1.14-1.71,2.35,2.35,0,0,0-1.73,1.09,3,3,0,0,0-.37,1.3,8,8,0,0,0,0,1.61c.15,1.31.23,2,.38,3.27l-3.13.36c-.15-1.32-.23-2-.38-3.31a9.5,9.5,0,0,1,.07-3,5.79,5.79,0,0,1,1-2.3,4.15,4.15,0,0,1,.73-.78,5.48,5.48,0,0,1,.9-.61,5.58,5.58,0,0,1,1-.44,5.26,5.26,0,0,1,.94-.22,6.7,6.7,0,0,1,.52-2.3,6.53,6.53,0,0,1,1.23-1.94,7,7,0,0,1,1.83-1.4,6.41,6.41,0,0,1,2.27-.71,6.68,6.68,0,0,1,2.68.18,6.8,6.8,0,0,1,2.32,1.14,6.36,6.36,0,0,1,1.71,1.93,6.68,6.68,0,0,1,.86,2.57,6.17,6.17,0,0,1-.21,2.65,6.45,6.45,0,0,1-1.21,2.25,7,7,0,0,1-2,1.64A6.75,6.75,0,0,1,572.13,617.46Zm-1.82-3.15a3.63,3.63,0,0,0,1.44.1,4,4,0,0,0,1.39-.44,3.7,3.7,0,0,0,1.08-.88,3.33,3.33,0,0,0,.63-1.21,3.45,3.45,0,0,0,.1-1.44,3.67,3.67,0,0,0-.44-1.38,3.36,3.36,0,0,0-.9-1,3.59,3.59,0,0,0-1.24-.61,3.74,3.74,0,0,0-1.5-.09,3.48,3.48,0,0,0-2.39,1.36,3.57,3.57,0,0,0-.6,1.22,3.79,3.79,0,0,0-.09,1.43,3.63,3.63,0,0,0,.43,1.35,3.22,3.22,0,0,0,.88,1A3.54,3.54,0,0,0,570.31,614.31Z" transform="translate(-158.65 -147.24)"/><path class="cls-2" d="M580,596.05l3.07-.41c.79,5.84,1.18,8.77,2,14.61l2.84-.39c.17,1.22.25,1.83.42,3l-6,.81C581.4,606.65,580.93,603.12,580,596.05Z" transform="translate(-158.65 -147.24)"/><path class="cls-2" d="M587.43,609.93l2.17-.3c-.81-5.84-1.21-8.77-2-14.61l3.06-.43c.37,2.6.55,3.89.92,6.49l6.71-1a8.3,8.3,0,0,1,2.68,0,5,5,0,0,1,2.15,1,4.23,4.23,0,0,1,1.27,1.73,10.24,10.24,0,0,1,.67,2.44c.12.84.19,1.27.32,2.11l2.39-.37c.18,1.22.28,1.83.46,3-8.14,1.26-12.21,1.85-20.36,3ZM592,604.1c.28,2,.43,3.06.72,5.09,3.82-.54,5.73-.82,9.55-1.38-.14-.9-.21-1.35-.34-2.24a4,4,0,0,0-.31-1.12,2.61,2.61,0,0,0-.58-.79,2.28,2.28,0,0,0-.88-.5,2.47,2.47,0,0,0-1.12-.07Zm5.22-6.26a2.14,2.14,0,0,1-2.52.37,1.45,1.45,0,0,1-.72-1.14,1.49,1.49,0,0,1,.35-1.24,2,2,0,0,1,1.22-.63,1.93,1.93,0,0,1,1.35.26,1.5,1.5,0,0,1,.68,1.09A1.42,1.42,0,0,1,597.21,597.84Z" transform="translate(-158.65 -147.24)"/><path class="cls-2" d="M607.33,607l2.74-.43c-.57-3.67-.86-5.51-1.43-9.18l3.08-.48c.77,4.89,1.16,7.33,1.93,12.22l-5.86.91C607.61,608.86,607.51,608.25,607.33,607ZM611,594.75a2.15,2.15,0,0,1-2.52.39,1.46,1.46,0,0,1-.73-1.13,1.48,1.48,0,0,1,.34-1.24,1.9,1.9,0,0,1,1.21-.65,1.88,1.88,0,0,1,1.35.25,1.63,1.63,0,0,1,.35,2.38Z" transform="translate(-158.65 -147.24)"/></svg>